<svg width="194" height="34" viewBox="0 0 194 34" fill="none" xmlns="http://www.w3.org/2000/svg">
<path fill-rule="evenodd" clip-rule="evenodd" d="M22.8975 32.9492C21.0603 33.6288 19.0735 34 17 34C7.61116 34 0 26.3888 0 17C0 7.61116 7.61116 0 17 0C26.3888 0 34 7.61116 34 17C34 22.4165 31.4668 27.2414 27.5205 30.3545L20.5531 24.7018C23.475 23.339 25.4999 20.3752 25.4999 16.9385C25.4999 12.2101 21.6667 8.37691 16.9383 8.37691C12.2099 8.37691 8.3767 12.2101 8.3767 16.9385C8.3767 19.3302 9.35742 21.4929 10.9386 23.0463L10.8406 23.1672L22.8975 32.9492Z" fill="url(#paint0_linear_26_158)"/>
<path fill-rule="evenodd" clip-rule="evenodd" d="M22.8975 32.9492C21.0603 33.6288 19.0735 34 17 34C7.61116 34 0 26.3888 0 17C0 7.61116 7.61116 0 17 0C26.3888 0 34 7.61116 34 17C34 22.4165 31.4668 27.2414 27.5205 30.3545L20.5531 24.7018C23.475 23.339 25.4999 20.3752 25.4999 16.9385C25.4999 12.2101 21.6667 8.37691 16.9383 8.37691C12.2099 8.37691 8.3767 12.2101 8.3767 16.9385C8.3767 19.3302 9.35742 21.4929 10.9386 23.0463L10.8406 23.1672L22.8975 32.9492Z" fill="#0267FF"/>
<path d="M44.46 24.0862V14.8275H47.7V27H44.6513L44.46 24.0862ZM44.82 21.5887L45.7763 21.5662C45.7763 22.3762 45.6825 23.13 45.495 23.8275C45.3075 24.5175 45.0263 25.1175 44.6513 25.6275C44.2763 26.13 43.8038 26.5237 43.2338 26.8087C42.6638 27.0863 41.9925 27.225 41.22 27.225C40.6275 27.225 40.08 27.1425 39.5775 26.9775C39.0825 26.805 38.655 26.5387 38.295 26.1787C37.9425 25.8112 37.665 25.3425 37.4625 24.7725C37.2675 24.195 37.17 23.5012 37.17 22.6912V14.8275H40.41V22.7137C40.41 23.0737 40.4513 23.3775 40.5338 23.625C40.6238 23.8725 40.7475 24.075 40.905 24.2325C41.0625 24.39 41.2463 24.5025 41.4563 24.57C41.6738 24.6375 41.9138 24.6712 42.1763 24.6712C42.8438 24.6712 43.3688 24.5362 43.7513 24.2662C44.1413 23.9962 44.415 23.6287 44.5725 23.1637C44.7375 22.6912 44.82 22.1662 44.82 21.5887ZM53.7102 14.8275V27H50.459V14.8275H53.7102ZM50.2565 11.655C50.2565 11.1825 50.4215 10.7925 50.7515 10.485C51.0815 10.1775 51.524 10.0237 52.079 10.0237C52.6265 10.0237 53.0652 10.1775 53.3952 10.485C53.7327 10.7925 53.9015 11.1825 53.9015 11.655C53.9015 12.1275 53.7327 12.5175 53.3952 12.825C53.0652 13.1325 52.6265 13.2862 52.079 13.2862C51.524 13.2862 51.0815 13.1325 50.7515 12.825C50.4215 12.5175 50.2565 12.1275 50.2565 11.655ZM66.1892 24.4687V27H56.9417V24.4687H66.1892ZM66.0092 16.695L58.2467 27H56.0754V25.0762L63.8042 14.8275H66.0092V16.695ZM64.8617 14.8275V17.37H56.2554V14.8275H64.8617ZM70.0844 10.62H72.9419L77.1494 22.6462L81.3569 10.62H84.2144L78.2969 27H76.0019L70.0844 10.62ZM68.5431 10.62H71.3894L71.9069 22.3425V27H68.5431V10.62ZM82.9094 10.62H85.7669V27H82.3919V22.3425L82.9094 10.62ZM95.2083 24.255V18.8325C95.2083 18.4425 95.1446 18.1087 95.0171 17.8312C94.8896 17.5462 94.6908 17.325 94.4208 17.1675C94.1583 17.01 93.8171 16.9312 93.3971 16.9312C93.0371 16.9312 92.7258 16.995 92.4633 17.1225C92.2008 17.2425 91.9983 17.4187 91.8558 17.6512C91.7133 17.8762 91.6421 18.1425 91.6421 18.45H88.4021C88.4021 17.9325 88.5221 17.4412 88.7621 16.9762C89.0021 16.5112 89.3508 16.1025 89.8083 15.75C90.2658 15.39 90.8096 15.1087 91.4396 14.9062C92.0771 14.7037 92.7896 14.6025 93.5771 14.6025C94.5221 14.6025 95.3621 14.76 96.0971 15.075C96.8321 15.39 97.4096 15.8625 97.8296 16.4925C98.2571 17.1225 98.4708 17.91 98.4708 18.855V24.0637C98.4708 24.7312 98.5121 25.2787 98.5946 25.7062C98.6771 26.1262 98.7971 26.4937 98.9546 26.8087V27H95.6808C95.5233 26.67 95.4033 26.2575 95.3208 25.7625C95.2458 25.26 95.2083 24.7575 95.2083 24.255ZM95.6358 19.5862L95.6583 21.42H93.8471C93.4196 21.42 93.0483 21.4687 92.7333 21.5662C92.4183 21.6637 92.1596 21.8025 91.9571 21.9825C91.7546 22.155 91.6046 22.3575 91.5071 22.59C91.4171 22.8225 91.3721 23.0775 91.3721 23.355C91.3721 23.6325 91.4358 23.8837 91.5633 24.1087C91.6908 24.3262 91.8746 24.4987 92.1146 24.6262C92.3546 24.7462 92.6358 24.8062 92.9583 24.8062C93.4458 24.8062 93.8696 24.7087 94.2296 24.5137C94.5896 24.3187 94.8671 24.0787 95.0621 23.7937C95.2646 23.5087 95.3696 23.2387 95.3771 22.9837L96.2321 24.3562C96.1121 24.6637 95.9471 24.9825 95.7371 25.3125C95.5346 25.6425 95.2758 25.9537 94.9608 26.2462C94.6458 26.5312 94.2671 26.7675 93.8246 26.955C93.3821 27.135 92.8571 27.225 92.2496 27.225C91.4771 27.225 90.7758 27.0713 90.1458 26.7637C89.5233 26.4487 89.0283 26.0175 88.6608 25.47C88.3008 24.915 88.1208 24.285 88.1208 23.58C88.1208 22.9425 88.2408 22.3762 88.4808 21.8812C88.7208 21.3862 89.0733 20.97 89.5383 20.6325C90.0108 20.2875 90.5996 20.0287 91.3046 19.8562C92.0096 19.6762 92.8271 19.5862 93.7571 19.5862H95.6358ZM107.665 23.6362C107.665 23.4037 107.597 23.1937 107.462 23.0062C107.327 22.8187 107.076 22.6462 106.709 22.4887C106.349 22.3237 105.827 22.1737 105.145 22.0387C104.53 21.9037 103.956 21.735 103.424 21.5325C102.899 21.3225 102.441 21.0712 102.051 20.7787C101.669 20.4862 101.369 20.1412 101.151 19.7437C100.934 19.3387 100.825 18.8775 100.825 18.36C100.825 17.85 100.934 17.37 101.151 16.92C101.376 16.47 101.695 16.0725 102.107 15.7275C102.527 15.375 103.037 15.1012 103.637 14.9062C104.245 14.7037 104.927 14.6025 105.685 14.6025C106.742 14.6025 107.65 14.7712 108.407 15.1087C109.172 15.4462 109.757 15.9112 110.162 16.5037C110.575 17.0887 110.781 17.7562 110.781 18.5062H107.541C107.541 18.1912 107.474 17.91 107.339 17.6625C107.211 17.4075 107.009 17.2087 106.731 17.0662C106.461 16.9162 106.109 16.8412 105.674 16.8412C105.314 16.8412 105.002 16.905 104.74 17.0325C104.477 17.1525 104.275 17.3175 104.132 17.5275C103.997 17.73 103.93 17.955 103.93 18.2025C103.93 18.39 103.967 18.5587 104.042 18.7087C104.125 18.8512 104.256 18.9825 104.436 19.1025C104.616 19.2225 104.849 19.335 105.134 19.44C105.426 19.5375 105.786 19.6275 106.214 19.71C107.091 19.89 107.875 20.1262 108.565 20.4187C109.255 20.7037 109.802 21.0937 110.207 21.5887C110.612 22.0762 110.815 22.7175 110.815 23.5125C110.815 24.0525 110.695 24.5475 110.455 24.9975C110.215 25.4475 109.87 25.8412 109.42 26.1787C108.97 26.5087 108.43 26.7675 107.8 26.955C107.177 27.135 106.476 27.225 105.696 27.225C104.564 27.225 103.604 27.0225 102.816 26.6175C102.036 26.2125 101.444 25.6987 101.039 25.0762C100.641 24.4462 100.442 23.8012 100.442 23.1412H103.514C103.529 23.5837 103.641 23.94 103.851 24.21C104.069 24.48 104.342 24.675 104.672 24.795C105.01 24.915 105.374 24.975 105.764 24.975C106.184 24.975 106.532 24.9187 106.81 24.8062C107.087 24.6862 107.297 24.5287 107.44 24.3337C107.59 24.1312 107.665 23.8987 107.665 23.6362ZM118.996 14.8275V17.1225H111.909V14.8275H118.996ZM113.664 11.8237H116.904V23.3325C116.904 23.685 116.949 23.955 117.039 24.1425C117.136 24.33 117.279 24.4612 117.466 24.5362C117.654 24.6037 117.89 24.6375 118.175 24.6375C118.377 24.6375 118.557 24.63 118.715 24.615C118.88 24.5925 119.019 24.57 119.131 24.5475L119.142 26.9325C118.865 27.0225 118.565 27.0938 118.242 27.1463C117.92 27.1988 117.564 27.225 117.174 27.225C116.461 27.225 115.839 27.1088 115.306 26.8762C114.781 26.6362 114.376 26.2537 114.091 25.7287C113.806 25.2037 113.664 24.5137 113.664 23.6587V11.8237ZM126.559 27.225C125.614 27.225 124.766 27.075 124.016 26.775C123.266 26.4675 122.629 26.0437 122.104 25.5037C121.586 24.9637 121.189 24.3375 120.911 23.625C120.634 22.905 120.495 22.14 120.495 21.33V20.88C120.495 19.9575 120.626 19.1137 120.889 18.3487C121.151 17.5837 121.526 16.92 122.014 16.3575C122.509 15.795 123.109 15.3637 123.814 15.0637C124.519 14.7562 125.314 14.6025 126.199 14.6025C127.061 14.6025 127.826 14.745 128.494 15.03C129.161 15.315 129.72 15.72 130.17 16.245C130.628 16.77 130.973 17.4 131.205 18.135C131.438 18.8625 131.554 19.6725 131.554 20.565V21.915H121.879V19.755H128.37V19.5075C128.37 19.0575 128.288 18.6562 128.123 18.3037C127.965 17.9437 127.725 17.6587 127.403 17.4487C127.08 17.2387 126.668 17.1337 126.165 17.1337C125.738 17.1337 125.37 17.2275 125.063 17.415C124.755 17.6025 124.504 17.865 124.309 18.2025C124.121 18.54 123.979 18.9375 123.881 19.395C123.791 19.845 123.746 20.34 123.746 20.88V21.33C123.746 21.8175 123.814 22.2675 123.949 22.68C124.091 23.0925 124.29 23.4487 124.545 23.7487C124.808 24.0487 125.123 24.2812 125.49 24.4462C125.865 24.6112 126.289 24.6937 126.761 24.6937C127.346 24.6937 127.89 24.5812 128.393 24.3562C128.903 24.1237 129.341 23.775 129.709 23.31L131.284 25.02C131.029 25.3875 130.68 25.74 130.238 26.0775C129.803 26.415 129.278 26.6925 128.663 26.91C128.048 27.12 127.346 27.225 126.559 27.225ZM136.754 17.4825V27H133.514V14.8275H136.563L136.754 17.4825ZM140.422 14.7487L140.365 17.7525C140.208 17.73 140.017 17.7112 139.792 17.6962C139.574 17.6737 139.375 17.6625 139.195 17.6625C138.738 17.6625 138.34 17.7225 138.003 17.8425C137.673 17.955 137.395 18.1237 137.17 18.3487C136.953 18.5737 136.788 18.8475 136.675 19.17C136.57 19.4925 136.51 19.86 136.495 20.2725L135.843 20.07C135.843 19.2825 135.922 18.5587 136.079 17.8987C136.237 17.2312 136.465 16.65 136.765 16.155C137.073 15.66 137.448 15.2775 137.89 15.0075C138.333 14.7375 138.839 14.6025 139.409 14.6025C139.589 14.6025 139.773 14.6175 139.96 14.6475C140.148 14.67 140.302 14.7037 140.422 14.7487Z" fill="url(#paint1_linear_26_158)"/>
<path d="M44.46 24.0862V14.8275H47.7V27H44.6513L44.46 24.0862ZM44.82 21.5887L45.7763 21.5662C45.7763 22.3762 45.6825 23.13 45.495 23.8275C45.3075 24.5175 45.0263 25.1175 44.6513 25.6275C44.2763 26.13 43.8038 26.5237 43.2338 26.8087C42.6638 27.0863 41.9925 27.225 41.22 27.225C40.6275 27.225 40.08 27.1425 39.5775 26.9775C39.0825 26.805 38.655 26.5387 38.295 26.1787C37.9425 25.8112 37.665 25.3425 37.4625 24.7725C37.2675 24.195 37.17 23.5012 37.17 22.6912V14.8275H40.41V22.7137C40.41 23.0737 40.4513 23.3775 40.5338 23.625C40.6238 23.8725 40.7475 24.075 40.905 24.2325C41.0625 24.39 41.2463 24.5025 41.4563 24.57C41.6738 24.6375 41.9138 24.6712 42.1763 24.6712C42.8438 24.6712 43.3688 24.5362 43.7513 24.2662C44.1413 23.9962 44.415 23.6287 44.5725 23.1637C44.7375 22.6912 44.82 22.1662 44.82 21.5887ZM53.7102 14.8275V27H50.459V14.8275H53.7102ZM50.2565 11.655C50.2565 11.1825 50.4215 10.7925 50.7515 10.485C51.0815 10.1775 51.524 10.0237 52.079 10.0237C52.6265 10.0237 53.0652 10.1775 53.3952 10.485C53.7327 10.7925 53.9015 11.1825 53.9015 11.655C53.9015 12.1275 53.7327 12.5175 53.3952 12.825C53.0652 13.1325 52.6265 13.2862 52.079 13.2862C51.524 13.2862 51.0815 13.1325 50.7515 12.825C50.4215 12.5175 50.2565 12.1275 50.2565 11.655ZM66.1892 24.4687V27H56.9417V24.4687H66.1892ZM66.0092 16.695L58.2467 27H56.0754V25.0762L63.8042 14.8275H66.0092V16.695ZM64.8617 14.8275V17.37H56.2554V14.8275H64.8617ZM70.0844 10.62H72.9419L77.1494 22.6462L81.3569 10.62H84.2144L78.2969 27H76.0019L70.0844 10.62ZM68.5431 10.62H71.3894L71.9069 22.3425V27H68.5431V10.62ZM82.9094 10.62H85.7669V27H82.3919V22.3425L82.9094 10.62ZM95.2083 24.255V18.8325C95.2083 18.4425 95.1446 18.1087 95.0171 17.8312C94.8896 17.5462 94.6908 17.325 94.4208 17.1675C94.1583 17.01 93.8171 16.9312 93.3971 16.9312C93.0371 16.9312 92.7258 16.995 92.4633 17.1225C92.2008 17.2425 91.9983 17.4187 91.8558 17.6512C91.7133 17.8762 91.6421 18.1425 91.6421 18.45H88.4021C88.4021 17.9325 88.5221 17.4412 88.7621 16.9762C89.0021 16.5112 89.3508 16.1025 89.8083 15.75C90.2658 15.39 90.8096 15.1087 91.4396 14.9062C92.0771 14.7037 92.7896 14.6025 93.5771 14.6025C94.5221 14.6025 95.3621 14.76 96.0971 15.075C96.8321 15.39 97.4096 15.8625 97.8296 16.4925C98.2571 17.1225 98.4708 17.91 98.4708 18.855V24.0637C98.4708 24.7312 98.5121 25.2787 98.5946 25.7062C98.6771 26.1262 98.7971 26.4937 98.9546 26.8087V27H95.6808C95.5233 26.67 95.4033 26.2575 95.3208 25.7625C95.2458 25.26 95.2083 24.7575 95.2083 24.255ZM95.6358 19.5862L95.6583 21.42H93.8471C93.4196 21.42 93.0483 21.4687 92.7333 21.5662C92.4183 21.6637 92.1596 21.8025 91.9571 21.9825C91.7546 22.155 91.6046 22.3575 91.5071 22.59C91.4171 22.8225 91.3721 23.0775 91.3721 23.355C91.3721 23.6325 91.4358 23.8837 91.5633 24.1087C91.6908 24.3262 91.8746 24.4987 92.1146 24.6262C92.3546 24.7462 92.6358 24.8062 92.9583 24.8062C93.4458 24.8062 93.8696 24.7087 94.2296 24.5137C94.5896 24.3187 94.8671 24.0787 95.0621 23.7937C95.2646 23.5087 95.3696 23.2387 95.3771 22.9837L96.2321 24.3562C96.1121 24.6637 95.9471 24.9825 95.7371 25.3125C95.5346 25.6425 95.2758 25.9537 94.9608 26.2462C94.6458 26.5312 94.2671 26.7675 93.8246 26.955C93.3821 27.135 92.8571 27.225 92.2496 27.225C91.4771 27.225 90.7758 27.0713 90.1458 26.7637C89.5233 26.4487 89.0283 26.0175 88.6608 25.47C88.3008 24.915 88.1208 24.285 88.1208 23.58C88.1208 22.9425 88.2408 22.3762 88.4808 21.8812C88.7208 21.3862 89.0733 20.97 89.5383 20.6325C90.0108 20.2875 90.5996 20.0287 91.3046 19.8562C92.0096 19.6762 92.8271 19.5862 93.7571 19.5862H95.6358ZM107.665 23.6362C107.665 23.4037 107.597 23.1937 107.462 23.0062C107.327 22.8187 107.076 22.6462 106.709 22.4887C106.349 22.3237 105.827 22.1737 105.145 22.0387C104.53 21.9037 103.956 21.735 103.424 21.5325C102.899 21.3225 102.441 21.0712 102.051 20.7787C101.669 20.4862 101.369 20.1412 101.151 19.7437C100.934 19.3387 100.825 18.8775 100.825 18.36C100.825 17.85 100.934 17.37 101.151 16.92C101.376 16.47 101.695 16.0725 102.107 15.7275C102.527 15.375 103.037 15.1012 103.637 14.9062C104.245 14.7037 104.927 14.6025 105.685 14.6025C106.742 14.6025 107.65 14.7712 108.407 15.1087C109.172 15.4462 109.757 15.9112 110.162 16.5037C110.575 17.0887 110.781 17.7562 110.781 18.5062H107.541C107.541 18.1912 107.474 17.91 107.339 17.6625C107.211 17.4075 107.009 17.2087 106.731 17.0662C106.461 16.9162 106.109 16.8412 105.674 16.8412C105.314 16.8412 105.002 16.905 104.74 17.0325C104.477 17.1525 104.275 17.3175 104.132 17.5275C103.997 17.73 103.93 17.955 103.93 18.2025C103.93 18.39 103.967 18.5587 104.042 18.7087C104.125 18.8512 104.256 18.9825 104.436 19.1025C104.616 19.2225 104.849 19.335 105.134 19.44C105.426 19.5375 105.786 19.6275 106.214 19.71C107.091 19.89 107.875 20.1262 108.565 20.4187C109.255 20.7037 109.802 21.0937 110.207 21.5887C110.612 22.0762 110.815 22.7175 110.815 23.5125C110.815 24.0525 110.695 24.5475 110.455 24.9975C110.215 25.4475 109.87 25.8412 109.42 26.1787C108.97 26.5087 108.43 26.7675 107.8 26.955C107.177 27.135 106.476 27.225 105.696 27.225C104.564 27.225 103.604 27.0225 102.816 26.6175C102.036 26.2125 101.444 25.6987 101.039 25.0762C100.641 24.4462 100.442 23.8012 100.442 23.1412H103.514C103.529 23.5837 103.641 23.94 103.851 24.21C104.069 24.48 104.342 24.675 104.672 24.795C105.01 24.915 105.374 24.975 105.764 24.975C106.184 24.975 106.532 24.9187 106.81 24.8062C107.087 24.6862 107.297 24.5287 107.44 24.3337C107.59 24.1312 107.665 23.8987 107.665 23.6362ZM118.996 14.8275V17.1225H111.909V14.8275H118.996ZM113.664 11.8237H116.904V23.3325C116.904 23.685 116.949 23.955 117.039 24.1425C117.136 24.33 117.279 24.4612 117.466 24.5362C117.654 24.6037 117.89 24.6375 118.175 24.6375C118.377 24.6375 118.557 24.63 118.715 24.615C118.88 24.5925 119.019 24.57 119.131 24.5475L119.142 26.9325C118.865 27.0225 118.565 27.0938 118.242 27.1463C117.92 27.1988 117.564 27.225 117.174 27.225C116.461 27.225 115.839 27.1088 115.306 26.8762C114.781 26.6362 114.376 26.2537 114.091 25.7287C113.806 25.2037 113.664 24.5137 113.664 23.6587V11.8237ZM126.559 27.225C125.614 27.225 124.766 27.075 124.016 26.775C123.266 26.4675 122.629 26.0437 122.104 25.5037C121.586 24.9637 121.189 24.3375 120.911 23.625C120.634 22.905 120.495 22.14 120.495 21.33V20.88C120.495 19.9575 120.626 19.1137 120.889 18.3487C121.151 17.5837 121.526 16.92 122.014 16.3575C122.509 15.795 123.109 15.3637 123.814 15.0637C124.519 14.7562 125.314 14.6025 126.199 14.6025C127.061 14.6025 127.826 14.745 128.494 15.03C129.161 15.315 129.72 15.72 130.17 16.245C130.628 16.77 130.973 17.4 131.205 18.135C131.438 18.8625 131.554 19.6725 131.554 20.565V21.915H121.879V19.755H128.37V19.5075C128.37 19.0575 128.288 18.6562 128.123 18.3037C127.965 17.9437 127.725 17.6587 127.403 17.4487C127.08 17.2387 126.668 17.1337 126.165 17.1337C125.738 17.1337 125.37 17.2275 125.063 17.415C124.755 17.6025 124.504 17.865 124.309 18.2025C124.121 18.54 123.979 18.9375 123.881 19.395C123.791 19.845 123.746 20.34 123.746 20.88V21.33C123.746 21.8175 123.814 22.2675 123.949 22.68C124.091 23.0925 124.29 23.4487 124.545 23.7487C124.808 24.0487 125.123 24.2812 125.49 24.4462C125.865 24.6112 126.289 24.6937 126.761 24.6937C127.346 24.6937 127.89 24.5812 128.393 24.3562C128.903 24.1237 129.341 23.775 129.709 23.31L131.284 25.02C131.029 25.3875 130.68 25.74 130.238 26.0775C129.803 26.415 129.278 26.6925 128.663 26.91C128.048 27.12 127.346 27.225 126.559 27.225ZM136.754 17.4825V27H133.514V14.8275H136.563L136.754 17.4825ZM140.422 14.7487L140.365 17.7525C140.208 17.73 140.017 17.7112 139.792 17.6962C139.574 17.6737 139.375 17.6625 139.195 17.6625C138.738 17.6625 138.34 17.7225 138.003 17.8425C137.673 17.955 137.395 18.1237 137.17 18.3487C136.953 18.5737 136.788 18.8475 136.675 19.17C136.57 19.4925 136.51 19.86 136.495 20.2725L135.843 20.07C135.843 19.2825 135.922 18.5587 136.079 17.8987C136.237 17.2312 136.465 16.65 136.765 16.155C137.073 15.66 137.448 15.2775 137.89 15.0075C138.333 14.7375 138.839 14.6025 139.409 14.6025C139.589 14.6025 139.773 14.6175 139.96 14.6475C140.148 14.67 140.302 14.7037 140.422 14.7487Z" fill="#0267FF"/>
<defs>
<linearGradient id="paint0_linear_26_158" x1="4.73196" y1="11.9951" x2="24.3663" y2="22.5177" gradientUnits="userSpaceOnUse">
<stop stop-color="#1275D0"/>
<stop offset="1" stop-color="#62AEF3"/>
</linearGradient>
<linearGradient id="paint1_linear_26_158" x1="57.9897" y1="15.8783" x2="69.5661" y2="50.8871" gradientUnits="userSpaceOnUse">
<stop stop-color="#1275D0"/>
<stop offset="1" stop-color="#62AEF3"/>
</linearGradient>
</defs>
</svg>
